<mxfile host="65bd71144e">
    <diagram id="9bruJvAFMh15KXZQaASx" name="Page-1">
        <mxGraphModel dx="5208" dy="575" grid="1" gridSize="10" guides="1" tooltips="1" connect="1" arrows="1" fold="1" page="1" pageScale="1" pageWidth="850" pageHeight="1100" math="0" shadow="0">
            <root>
                <mxCell id="0"/>
                <mxCell id="1" parent="0"/>
                <mxCell id="74" value="&lt;p style=&quot;text-align: center; margin: 4px 0px 0px; font-size: 18px;&quot;&gt;&lt;br style=&quot;font-size: 18px;&quot;&gt;&lt;/p&gt;&lt;p style=&quot;text-align: center; margin: 4px 0px 0px; font-size: 18px;&quot;&gt;&lt;b style=&quot;font-size: 18px;&quot;&gt;DNode&amp;lt;Customer&amp;gt;&lt;/b&gt;&lt;/p&gt;&lt;p style=&quot;margin: 4px 0px 0px; text-align: center; font-size: 18px;&quot;&gt;&lt;b style=&quot;font-size: 18px;&quot;&gt;&lt;br style=&quot;font-size: 18px;&quot;&gt;&lt;/b&gt;&lt;/p&gt;&lt;hr style=&quot;font-size: 18px;&quot;&gt;&lt;p style=&quot;margin: 0px 0px 0px 4px; font-size: 18px;&quot;&gt;&lt;br style=&quot;font-size: 18px;&quot;&gt;&lt;/p&gt;&lt;hr style=&quot;font-size: 18px;&quot;&gt;&lt;p style=&quot;margin: 0px 0px 0px 4px; font-size: 18px;&quot;&gt;&lt;br style=&quot;font-size: 18px;&quot;&gt;&lt;/p&gt;" style="verticalAlign=top;align=left;overflow=fill;fontSize=18;fontFamily=Helvetica;html=1;strokeColor=#000000;fontColor=default;fillColor=default;" vertex="1" parent="1">
                    <mxGeometry x="-1330" y="1860" width="240" height="90" as="geometry"/>
                </mxCell>
                <mxCell id="75" value="&lt;p style=&quot;text-align: center; margin: 4px 0px 0px; font-size: 18px;&quot;&gt;&lt;br style=&quot;font-size: 18px;&quot;&gt;&lt;/p&gt;&lt;p style=&quot;text-align: center; margin: 4px 0px 0px; font-size: 18px;&quot;&gt;&lt;b style=&quot;font-size: 18px;&quot;&gt;DNode&amp;lt;Product&amp;gt;&lt;/b&gt;&lt;/p&gt;&lt;p style=&quot;margin: 4px 0px 0px; text-align: center; font-size: 18px;&quot;&gt;&lt;b style=&quot;font-size: 18px;&quot;&gt;&lt;br style=&quot;font-size: 18px;&quot;&gt;&lt;/b&gt;&lt;/p&gt;&lt;hr style=&quot;font-size: 18px;&quot;&gt;&lt;p style=&quot;margin: 0px 0px 0px 4px; font-size: 18px;&quot;&gt;&lt;br style=&quot;font-size: 18px;&quot;&gt;&lt;/p&gt;&lt;hr style=&quot;font-size: 18px;&quot;&gt;&lt;p style=&quot;margin: 0px 0px 0px 4px; font-size: 18px;&quot;&gt;&lt;br style=&quot;font-size: 18px;&quot;&gt;&lt;/p&gt;" style="verticalAlign=top;align=left;overflow=fill;fontSize=18;fontFamily=Helvetica;html=1;strokeColor=#000000;fontColor=default;fillColor=default;" vertex="1" parent="1">
                    <mxGeometry x="-1330" y="1740" width="240" height="90" as="geometry"/>
                </mxCell>
                <mxCell id="76" value="&lt;p style=&quot;text-align: center; margin: 4px 0px 0px; font-size: 18px;&quot;&gt;&lt;br style=&quot;font-size: 18px;&quot;&gt;&lt;/p&gt;&lt;p style=&quot;text-align: center; margin: 4px 0px 0px; font-size: 18px;&quot;&gt;&lt;b style=&quot;font-size: 18px;&quot;&gt;DNode&amp;lt;Bill&amp;gt;&lt;/b&gt;&lt;/p&gt;&lt;p style=&quot;margin: 4px 0px 0px; text-align: center; font-size: 18px;&quot;&gt;&lt;b style=&quot;font-size: 18px;&quot;&gt;&lt;br style=&quot;font-size: 18px;&quot;&gt;&lt;/b&gt;&lt;/p&gt;&lt;hr style=&quot;font-size: 18px;&quot;&gt;&lt;p style=&quot;margin: 0px 0px 0px 4px; font-size: 18px;&quot;&gt;&lt;br style=&quot;font-size: 18px;&quot;&gt;&lt;/p&gt;&lt;hr style=&quot;font-size: 18px;&quot;&gt;&lt;p style=&quot;margin: 0px 0px 0px 4px; font-size: 18px;&quot;&gt;&lt;br style=&quot;font-size: 18px;&quot;&gt;&lt;/p&gt;" style="verticalAlign=top;align=left;overflow=fill;fontSize=18;fontFamily=Helvetica;html=1;strokeColor=#000000;fontColor=default;fillColor=default;" vertex="1" parent="1">
                    <mxGeometry x="-1330" y="1560" width="240" height="90" as="geometry"/>
                </mxCell>
                <mxCell id="91" style="edgeStyle=none;html=1;exitX=0.75;exitY=0;exitDx=0;exitDy=0;entryX=0.752;entryY=0.055;entryDx=0;entryDy=0;entryPerimeter=0;fontSize=18;fontColor=default;" edge="1" parent="1">
                    <mxGeometry relative="1" as="geometry">
                        <mxPoint x="-1455" y="430" as="sourcePoint"/>
                        <mxPoint x="-1454.72" y="440.06500000000005" as="targetPoint"/>
                    </mxGeometry>
                </mxCell>
                <mxCell id="92" value="&lt;b style=&quot;color: rgb(240, 240, 240); font-family: Helvetica; font-size: 24px;&quot;&gt;Customer&lt;/b&gt;" style="swimlane;html=1;fontStyle=0;childLayout=stackLayout;horizontal=1;startSize=40;fillColor=#0050ef;horizontalStack=0;resizeParent=1;resizeLast=0;collapsible=1;marginBottom=0;swimlaneFillColor=#ffffff;rounded=0;shadow=0;comic=0;labelBackgroundColor=none;strokeWidth=1;fontFamily=Verdana;fontSize=18;align=center;strokeColor=#FFFFFF;fontColor=#ffffff;" vertex="1" parent="1">
                    <mxGeometry x="-450" y="400" width="330" height="574" as="geometry"/>
                </mxCell>
                <mxCell id="93" value="&lt;br style=&quot;font-size: 18px;&quot;&gt;&amp;nbsp;-&amp;nbsp;NumCustomer : static long long&lt;br&gt;&amp;nbsp;- ID : String&lt;br&gt;&amp;nbsp;- String Name : String&lt;br&gt;&amp;nbsp;- PhoneNumber : Phone&lt;br&gt;&amp;nbsp;- Address : String&lt;br&gt;&amp;nbsp;- isDeleted : bool&lt;br&gt;&lt;p style=&quot;border-color: rgb(0, 0, 0); color: rgb(240, 240, 240); font-family: Helvetica; font-size: 18px; font-style: normal; font-variant-ligatures: normal; font-variant-caps: normal; letter-spacing: normal; orphans: 2; text-align: left; text-indent: 0px; text-transform: none; widows: 2; word-spacing: 0px; -webkit-text-stroke-width: 0px; text-decoration-thickness: initial; text-decoration-style: initial; text-decoration-color: initial; margin: 0px 0px 0px 4px;&quot;&gt;- List : DList&amp;lt;Bill*&amp;gt;&lt;/p&gt;&lt;span style=&quot;background-color: rgb(0, 0, 0); font-size: 18px;&quot;&gt;&lt;br style=&quot;font-size: 18px;&quot;&gt;&lt;/span&gt;" style="text;html=1;strokeColor=default;fillColor=default;align=left;verticalAlign=top;spacingLeft=4;spacingRight=4;whiteSpace=wrap;overflow=hidden;rotatable=0;points=[[0,0.5],[1,0.5]];portConstraint=eastwest;fontSize=18;" vertex="1" parent="92">
                    <mxGeometry y="40" width="330" height="204" as="geometry"/>
                </mxCell>
                <mxCell id="94" value="&lt;span style=&quot;font-size: 18px;&quot;&gt;&amp;nbsp;+&amp;nbsp;&lt;/span&gt;&lt;span style=&quot;font-size: 18px;&quot;&gt;Customer(const String&amp;amp;,const Phone&amp;amp;, const String&amp;amp;);&lt;/span&gt;&lt;div style=&quot;font-size: 18px;&quot;&gt;&amp;nbsp;+ ~Customer();&lt;/div&gt;&lt;div style=&quot;font-size: 18px;&quot;&gt;&amp;nbsp;+ void AddBill(Bill *);&lt;/div&gt;&lt;div style=&quot;font-size: 18px;&quot;&gt;&amp;nbsp;+ String GetID() const;&lt;/div&gt;&lt;div style=&quot;font-size: 18px;&quot;&gt;&amp;nbsp;+ String GetName() const;&lt;/div&gt;&lt;div style=&quot;font-size: 18px;&quot;&gt;&amp;nbsp;+ Phone GetPhone() const;&lt;/div&gt;&lt;div style=&quot;font-size: 18px;&quot;&gt;&amp;nbsp;+ String GetAddress() const;&lt;/div&gt;&lt;div style=&quot;font-size: 18px;&quot;&gt;&amp;nbsp;+ bool Deleted() const;&lt;/div&gt;&lt;div style=&quot;font-size: 18px;&quot;&gt;&amp;nbsp;+ void SetPhone(const Phone &amp;amp;);&lt;/div&gt;&lt;div style=&quot;font-size: 18px;&quot;&gt;&amp;nbsp;+ void SetName(const String &amp;amp;);&lt;/div&gt;&lt;div style=&quot;font-size: 18px;&quot;&gt;&amp;nbsp;+ void SetAddress(const String&amp;amp;);&lt;/div&gt;&lt;div style=&quot;font-size: 18px;&quot;&gt;&amp;nbsp;+ void CancelCurrentBill();&lt;/div&gt;&lt;p style=&quot;font-size: 18px; margin: 0px 0px 0px 4px;&quot;&gt;+ void Delete();&lt;/p&gt;" style="text;html=1;strokeColor=default;fillColor=default;align=left;verticalAlign=top;spacingLeft=4;spacingRight=4;whiteSpace=wrap;overflow=hidden;rotatable=0;points=[[0,0.5],[1,0.5]];portConstraint=eastwest;fontSize=18;gradientColor=none;" vertex="1" parent="92">
                    <mxGeometry y="244" width="330" height="330" as="geometry"/>
                </mxCell>
                <mxCell id="99" value="&lt;b style=&quot;color: rgb(240, 240, 240); font-family: Helvetica;&quot;&gt;&lt;font style=&quot;font-size: 24px;&quot;&gt;DList&amp;lt;T&amp;gt;&lt;/font&gt;&lt;/b&gt;" style="swimlane;html=1;fontStyle=0;childLayout=stackLayout;horizontal=1;startSize=40;fillColor=#0050ef;horizontalStack=0;resizeParent=1;resizeLast=0;collapsible=1;marginBottom=0;swimlaneFillColor=#ffffff;rounded=0;shadow=0;comic=0;labelBackgroundColor=none;strokeWidth=1;fontFamily=Verdana;fontSize=18;align=center;strokeColor=#FFFFFF;fontColor=#ffffff;labelBorderColor=none;" vertex="1" parent="1">
                    <mxGeometry x="-740" y="1353" width="670" height="594" as="geometry">
                        <mxRectangle x="-750" y="1350" width="140" height="40" as="alternateBounds"/>
                    </mxGeometry>
                </mxCell>
                <mxCell id="100" value="&lt;p style=&quot;margin: 0px 0px 0px 4px; font-size: 18px;&quot;&gt;&lt;font style=&quot;font-size: 18px;&quot;&gt;- Head: DNode&amp;lt;T&amp;gt; *&lt;br style=&quot;font-size: 18px;&quot;&gt;- Tail: DNode&amp;lt;T&amp;gt; *&lt;/font&gt;&lt;/p&gt;&lt;p style=&quot;margin: 0px 0px 0px 4px; font-size: 18px;&quot;&gt;&lt;br style=&quot;font-size: 18px;&quot;&gt;&lt;/p&gt;" style="text;html=1;strokeColor=default;fillColor=default;align=left;verticalAlign=top;spacingLeft=4;spacingRight=4;whiteSpace=wrap;overflow=hidden;rotatable=0;points=[[0,0.5],[1,0.5]];portConstraint=eastwest;fontSize=18;" vertex="1" parent="99">
                    <mxGeometry y="40" width="670" height="104" as="geometry"/>
                </mxCell>
                <mxCell id="101" value="&lt;span style=&quot;&quot;&gt;&amp;nbsp;+&amp;nbsp;&lt;/span&gt;&lt;span style=&quot;background-color: initial;&quot;&gt;DList();&lt;/span&gt;&lt;div style=&quot;&quot;&gt;&amp;nbsp;+ ~DList();&lt;/div&gt;&lt;div style=&quot;&quot;&gt;&amp;nbsp;+ void InsertFirst( DNode&amp;lt;T&amp;gt; * const);&lt;/div&gt;&lt;div style=&quot;&quot;&gt;&amp;nbsp;+ void InsertLast( DNode&amp;lt;T&amp;gt; * const);&lt;/div&gt;&lt;div style=&quot;&quot;&gt;&amp;nbsp;+ void RemoveFirst();&lt;/div&gt;&lt;div style=&quot;&quot;&gt;&amp;nbsp;+ void RemoveLast();&lt;/div&gt;&lt;div style=&quot;&quot;&gt;&amp;nbsp;+ void Remove(const DNode&amp;lt;T&amp;gt; * const);&lt;/div&gt;&lt;div style=&quot;&quot;&gt;&amp;nbsp;+ bool isEmpty() const;&lt;/div&gt;&lt;div style=&quot;&quot;&gt;&amp;nbsp;+ void Clear();&lt;/div&gt;&lt;div style=&quot;&quot;&gt;&amp;nbsp;+ DNode&amp;lt;T&amp;gt;* GetFirstElement() const;&lt;/div&gt;&lt;div style=&quot;&quot;&gt;&amp;nbsp;+ DNode&amp;lt;T&amp;gt;* GetLastElement() const;&lt;/div&gt;&lt;div style=&quot;&quot;&gt;&lt;span style=&quot;background-color: initial;&quot;&gt;&amp;nbsp;+ friend C* FindIndex(const DList&amp;lt;C*&amp;gt; &amp;amp;, const int&amp;amp;);&lt;/span&gt;&lt;br&gt;&lt;/div&gt;&lt;div style=&quot;&quot;&gt;&amp;nbsp;+&amp;nbsp;&lt;span style=&quot;background-color: initial;&quot;&gt;friend C* FindFirstMatch(const DList &amp;lt;C*&amp;gt; &amp;amp;, const K&amp;amp;, K(C::*)() const);&lt;/span&gt;&lt;/div&gt;&lt;div style=&quot;&quot;&gt;&lt;span style=&quot;background-color: initial;&quot;&gt;&amp;nbsp;+ friend DList&amp;lt; C* &amp;gt; * FindAll(const DList &amp;lt;C*&amp;gt; &amp;amp;, const K&amp;amp;, K(C::*)() const, int&amp;amp;);&lt;/span&gt;&lt;br&gt;&lt;/div&gt;&lt;div style=&quot;&quot;&gt;&lt;span style=&quot;background-color: initial;&quot;&gt;&amp;nbsp;+ friend void QuickSort(DNode&amp;lt;C*&amp;gt;*, DNode&amp;lt;C*&amp;gt;*, K(C::*)() const, int);&lt;/span&gt;&lt;br&gt;&lt;/div&gt;&lt;div style=&quot;&quot;&gt;&lt;span style=&quot;background-color: initial;&quot;&gt;&amp;nbsp;+ friend DNode&amp;lt;C*&amp;gt;* Partition(DNode&amp;lt;C*&amp;gt;*, DNode&amp;lt;C*&amp;gt;*, K(C::*)() const, int);&lt;/span&gt;&lt;br&gt;&lt;/div&gt;&lt;div style=&quot;&quot;&gt;&lt;span style=&quot;background-color: initial;&quot;&gt;&amp;nbsp;+ friend void SwapNode(DNode&amp;lt;C*&amp;gt;*, DNode&amp;lt;C*&amp;gt;*);&lt;/span&gt;&lt;br&gt;&lt;/div&gt;&lt;div style=&quot;&quot;&gt;&lt;span style=&quot;background-color: initial;&quot;&gt;&amp;nbsp;+ friend void ReleaseAll(DList&amp;lt;C*&amp;gt;&amp;amp;);&lt;/span&gt;&lt;/div&gt;" style="text;html=1;strokeColor=default;fillColor=default;align=left;verticalAlign=top;spacingLeft=4;spacingRight=4;whiteSpace=wrap;overflow=hidden;rotatable=0;points=[[0,0.5],[1,0.5]];portConstraint=eastwest;fontSize=18;gradientColor=none;" vertex="1" parent="99">
                    <mxGeometry y="144" width="670" height="450" as="geometry"/>
                </mxCell>
                <mxCell id="103" value="&lt;b style=&quot;color: rgb(240, 240, 240); font-family: Helvetica;&quot;&gt;&lt;font style=&quot;font-size: 24px;&quot;&gt;DNode&amp;lt;T&amp;gt;&lt;/font&gt;&lt;/b&gt;" style="swimlane;html=1;fontStyle=0;childLayout=stackLayout;horizontal=1;startSize=40;fillColor=#0050ef;horizontalStack=0;resizeParent=1;resizeLast=0;collapsible=1;marginBottom=0;swimlaneFillColor=#ffffff;rounded=0;shadow=0;comic=0;labelBackgroundColor=none;strokeWidth=1;fontFamily=Verdana;fontSize=18;align=center;strokeColor=#FFFFFF;fontColor=#ffffff;" vertex="1" parent="1">
                    <mxGeometry x="-1670" y="1350" width="290" height="594" as="geometry"/>
                </mxCell>
                <mxCell id="104" value="&lt;p style=&quot;margin: 0px 0px 0px 4px;&quot;&gt;- data: T&lt;br&gt;- next: DNode*&lt;/p&gt;&lt;p style=&quot;margin: 0px 0px 0px 4px;&quot;&gt;- pre: DNode*&lt;/p&gt;" style="text;html=1;strokeColor=default;fillColor=default;align=left;verticalAlign=top;spacingLeft=4;spacingRight=4;whiteSpace=wrap;overflow=hidden;rotatable=0;points=[[0,0.5],[1,0.5]];portConstraint=eastwest;fontSize=18;" vertex="1" parent="103">
                    <mxGeometry y="40" width="290" height="104" as="geometry"/>
                </mxCell>
                <mxCell id="105" value="&lt;span style=&quot;background-color: initial;&quot;&gt;+ DNode(const T&amp;amp;)&lt;br&gt;&lt;/span&gt;&lt;span style=&quot;background-color: initial;&quot;&gt;+ ~DNode()&lt;/span&gt;&lt;span style=&quot;background-color: initial;&quot;&gt;&lt;br&gt;&lt;/span&gt;" style="text;html=1;strokeColor=default;fillColor=default;align=left;verticalAlign=top;spacingLeft=4;spacingRight=4;whiteSpace=wrap;overflow=hidden;rotatable=0;points=[[0,0.5],[1,0.5]];portConstraint=eastwest;fontSize=18;gradientColor=none;" vertex="1" parent="103">
                    <mxGeometry y="144" width="290" height="450" as="geometry"/>
                </mxCell>
                <mxCell id="107" value="&lt;b style=&quot;color: rgb(240, 240, 240); font-family: Helvetica; font-size: 24px;&quot;&gt;Product&lt;/b&gt;" style="swimlane;html=1;fontStyle=0;childLayout=stackLayout;horizontal=1;startSize=40;fillColor=#0050ef;horizontalStack=0;resizeParent=1;resizeLast=0;collapsible=1;marginBottom=0;swimlaneFillColor=#ffffff;rounded=0;shadow=0;comic=0;labelBackgroundColor=none;strokeWidth=1;fontFamily=Verdana;fontSize=18;align=center;strokeColor=#FFFFFF;fontColor=#ffffff;" vertex="1" parent="1">
                    <mxGeometry x="-1680" y="40" width="660" height="850" as="geometry"/>
                </mxCell>
                <mxCell id="108" value="&lt;span style=&quot;background-color: rgb(0, 0, 0);&quot;&gt;&lt;div style=&quot;&quot;&gt;- ID : String&lt;/div&gt;&lt;div style=&quot;&quot;&gt;- Name : String&lt;/div&gt;&lt;div style=&quot;&quot;&gt;- XS : String&lt;/div&gt;&lt;div style=&quot;&quot;&gt;- int NumDP : int&lt;/div&gt;&lt;div style=&quot;&quot;&gt;- int SL : int&lt;/div&gt;&lt;div style=&quot;&quot;&gt;- int Price : int&lt;/div&gt;&lt;div style=&quot;&quot;&gt;- bool isDeleted : bool&lt;/div&gt;&lt;div style=&quot;&quot;&gt;- List : DList&amp;lt;DetailProduct*&amp;gt;&lt;/div&gt;&lt;/span&gt;" style="text;html=1;strokeColor=default;fillColor=default;align=left;verticalAlign=top;spacingLeft=4;spacingRight=4;whiteSpace=wrap;overflow=hidden;rotatable=0;points=[[0,0.5],[1,0.5]];portConstraint=eastwest;fontSize=18;" vertex="1" parent="107">
                    <mxGeometry y="40" width="660" height="200" as="geometry"/>
                </mxCell>
                <mxCell id="109" value="&lt;div&gt;+ Product(const String&amp;amp;, const String&amp;amp;, const String&amp;amp;, const int&amp;amp;);&lt;/div&gt;&lt;div&gt;+ ~Product();&lt;/div&gt;&lt;div&gt;+ void AddDetailProduct(DetailProduct*);&lt;/div&gt;&lt;div&gt;+ DetailProduct* FindDetailProduct(const String&amp;amp;) const;&lt;/div&gt;&lt;div&gt;+ int GetNumDP() const;&lt;/div&gt;&lt;div&gt;+ String GetID() const;&lt;/div&gt;&lt;div&gt;+ String GetName() const;&lt;/div&gt;&lt;div&gt;+ String GetXS() const;&lt;/div&gt;&lt;div&gt;+ String GetSL_str() const;&lt;/div&gt;&lt;div&gt;+ int GetSL() const;&lt;/div&gt;&lt;div&gt;+ int GetPrice() const;&lt;/div&gt;&lt;div&gt;+ bool SLWarn() const;&lt;/div&gt;&lt;div&gt;+ const DList&amp;lt;DetailProduct*&amp;gt;&amp;amp; GetDPList() const;&lt;/div&gt;&lt;div&gt;+ void Deduct(const int);&lt;/div&gt;&lt;div&gt;+ void Add(const int);&lt;/div&gt;&lt;div&gt;+ void Delete();&lt;/div&gt;&lt;div&gt;+ bool Deleted() const;&lt;/div&gt;&lt;div&gt;+ void DeleteDP(DetailProduct*);&lt;/div&gt;&lt;div&gt;&lt;div&gt;+ friend void OutputProductFile(const String &amp;amp;, const DList&amp;lt;Product*&amp;gt;&amp;amp;);&lt;/div&gt;&lt;div&gt;+ friend DList&amp;lt;DetailProduct*&amp;gt;* OutOfExpiration(const DList&amp;lt;Product*&amp;gt;&amp;amp;, const int&amp;amp;);&lt;/div&gt;&lt;div&gt;+ friend void OutputTable(const DList&amp;lt;Product *&amp;gt; &amp;amp;, std::ostream&amp;amp;);&lt;/div&gt;&lt;div&gt;+ friend void OutputDetail(const Product *, std::ostream&amp;amp;);&lt;/div&gt;&lt;div&gt;+ friend bool InsertProduct(DList&amp;lt;Product *&amp;gt; &amp;amp;, Product *, DetailProduct *);&lt;/div&gt;&lt;div&gt;+ friend void OutputDetailProduct(const DList&amp;lt;DetailProduct *&amp;gt;&amp;amp;, std::ostream&amp;amp;);&lt;/div&gt;&lt;div&gt;+ friend void OutputExpiredDetailProduct(const DList&amp;lt;DetailProduct *&amp;gt;&amp;amp;, std::ostream&amp;amp;);&lt;/div&gt;&lt;/div&gt;" style="text;html=1;strokeColor=default;fillColor=default;align=left;verticalAlign=top;spacingLeft=4;spacingRight=4;whiteSpace=wrap;overflow=hidden;rotatable=0;points=[[0,0.5],[1,0.5]];portConstraint=eastwest;fontSize=18;gradientColor=none;" vertex="1" parent="107">
                    <mxGeometry y="240" width="660" height="610" as="geometry"/>
                </mxCell>
                <mxCell id="114" value="&lt;b style=&quot;color: rgb(240, 240, 240); font-family: Helvetica; font-size: 24px;&quot;&gt;DetailProduct&lt;/b&gt;" style="swimlane;html=1;fontStyle=0;childLayout=stackLayout;horizontal=1;startSize=40;fillColor=#0050ef;horizontalStack=0;resizeParent=1;resizeLast=0;collapsible=1;marginBottom=0;swimlaneFillColor=#ffffff;rounded=0;shadow=0;comic=0;labelBackgroundColor=none;strokeWidth=1;fontFamily=Verdana;fontSize=18;align=center;strokeColor=#FFFFFF;fontColor=#ffffff;" vertex="1" parent="1">
                    <mxGeometry x="-2270" y="1300" width="480" height="790" as="geometry"/>
                </mxCell>
                <mxCell id="115" value="&lt;span style=&quot;background-color: rgb(0, 0, 0);&quot;&gt;&lt;div style=&quot;&quot;&gt;&lt;div&gt;- String ID;&lt;/div&gt;&lt;div&gt;- Date NN;&lt;/div&gt;&lt;div&gt;- Date NSX;&lt;/div&gt;&lt;div&gt;- Date HSD;&lt;/div&gt;&lt;div&gt;- int SL;&lt;/div&gt;&lt;div&gt;- bool isDeleted;&lt;/div&gt;&lt;div&gt;- Product *ptrP;&lt;/div&gt;&lt;div&gt;- DList&amp;lt;DetailBill*&amp;gt; List;&lt;/div&gt;&lt;div&gt;void ConnectProduct(Product *);&lt;/div&gt;&lt;/div&gt;&lt;/span&gt;" style="text;html=1;strokeColor=default;fillColor=default;align=left;verticalAlign=top;spacingLeft=4;spacingRight=4;whiteSpace=wrap;overflow=hidden;rotatable=0;points=[[0,0.5],[1,0.5]];portConstraint=eastwest;fontSize=18;" vertex="1" parent="114">
                    <mxGeometry y="40" width="480" height="220" as="geometry"/>
                </mxCell>
                <mxCell id="116" value="&lt;div&gt;+DetailProduct(const String&amp;amp;, const Date&amp;amp;, const Date&amp;amp;, const Date&amp;amp;, const int&amp;amp;);&lt;/div&gt;&lt;div&gt;+ ~DetailProduct();&lt;/div&gt;&lt;div&gt;+ void AddDetailBill(DetailBill *);&lt;/div&gt;&lt;div&gt;+ void Deduct(const int);&lt;/div&gt;&lt;div&gt;+ void Add(const int);&lt;/div&gt;&lt;div&gt;+ String GetID() const;&lt;/div&gt;&lt;div&gt;+ Date GetNN() const;&lt;/div&gt;&lt;div&gt;+ Date GetNSX() const;&lt;/div&gt;&lt;div&gt;+ Date GetHSD() const;&lt;/div&gt;&lt;div&gt;+ int GetSL() const;&lt;/div&gt;&lt;div&gt;+ int GetPrice() const;&lt;/div&gt;&lt;div&gt;+ bool Deleted() const;&lt;/div&gt;&lt;div&gt;+ void Delete();&lt;/div&gt;&lt;div&gt;+ String GetProductName() const;&lt;/div&gt;&lt;div&gt;+ String GetProductID() const;&lt;/div&gt;&lt;div&gt;+ virtual bool SLWarn() const;&lt;/div&gt;&lt;div&gt;+ bool HSDWarn() const;&lt;/div&gt;&lt;div&gt;+ virtual int Calculate(const int&amp;amp;) const;&lt;/div&gt;&lt;div&gt;+ virtual String GetSL_str() const;&lt;/div&gt;&lt;div&gt;+ virtual String GetDonVi() const;&lt;/div&gt;&lt;div&gt;+ friend class Product;&lt;/div&gt;" style="text;html=1;strokeColor=default;fillColor=default;align=left;verticalAlign=top;spacingLeft=4;spacingRight=4;whiteSpace=wrap;overflow=hidden;rotatable=0;points=[[0,0.5],[1,0.5]];portConstraint=eastwest;fontSize=18;gradientColor=none;" vertex="1" parent="114">
                    <mxGeometry y="260" width="480" height="530" as="geometry"/>
                </mxCell>
                <mxCell id="117" value="&lt;b style=&quot;color: rgb(240, 240, 240); font-family: Helvetica; font-size: 24px;&quot;&gt;DetailProductWeight&lt;/b&gt;" style="swimlane;html=1;fontStyle=0;childLayout=stackLayout;horizontal=1;startSize=40;fillColor=#0050ef;horizontalStack=0;resizeParent=1;resizeLast=0;collapsible=1;marginBottom=0;swimlaneFillColor=#ffffff;rounded=0;shadow=0;comic=0;labelBackgroundColor=none;strokeWidth=1;fontFamily=Verdana;fontSize=18;align=center;strokeColor=#FFFFFF;fontColor=#ffffff;" vertex="1" parent="1">
                    <mxGeometry x="-3150" y="1480" width="480" height="430" as="geometry"/>
                </mxCell>
                <mxCell id="118" value="&lt;span style=&quot;background-color: rgb(0, 0, 0);&quot;&gt;&lt;div style=&quot;&quot;&gt;- CalUnit : static int&lt;br&gt;&lt;/div&gt;&lt;div style=&quot;&quot;&gt;&lt;br&gt;&lt;/div&gt;&lt;/span&gt;" style="text;html=1;strokeColor=default;fillColor=default;align=left;verticalAlign=top;spacingLeft=4;spacingRight=4;whiteSpace=wrap;overflow=hidden;rotatable=0;points=[[0,0.5],[1,0.5]];portConstraint=eastwest;fontSize=18;" vertex="1" parent="117">
                    <mxGeometry y="40" width="480" height="120" as="geometry"/>
                </mxCell>
                <mxCell id="119" value="&lt;div&gt;+ DetailWeightProduct(const String&amp;amp;, const Date&amp;amp;, const Date&amp;amp;, const Date&amp;amp;, const int&amp;amp;);&lt;/div&gt;&lt;div&gt;+ ~DetailWeightProduct();&lt;/div&gt;&lt;div&gt;+ virtual&amp;nbsp; int Calculate(const int &amp;amp;) const;&lt;/div&gt;&lt;div&gt;+ virtual bool SLWarn() const;&lt;/div&gt;&lt;div&gt;+ virtual String GetSL_str() const;&lt;/div&gt;&lt;div&gt;+ virtual String GetDonVi() const;&lt;/div&gt;&lt;div&gt;+ static void SetCalUnit(const int &amp;amp;);&lt;/div&gt;" style="text;html=1;strokeColor=default;fillColor=default;align=left;verticalAlign=top;spacingLeft=4;spacingRight=4;whiteSpace=wrap;overflow=hidden;rotatable=0;points=[[0,0.5],[1,0.5]];portConstraint=eastwest;fontSize=18;gradientColor=none;" vertex="1" parent="117">
                    <mxGeometry y="160" width="480" height="270" as="geometry"/>
                </mxCell>
                <mxCell id="120" value="&lt;b style=&quot;color: rgb(240, 240, 240); font-family: Helvetica; font-size: 24px;&quot;&gt;Bill&lt;/b&gt;" style="swimlane;html=1;fontStyle=0;childLayout=stackLayout;horizontal=1;startSize=40;fillColor=#0050ef;horizontalStack=0;resizeParent=1;resizeLast=0;collapsible=1;marginBottom=0;swimlaneFillColor=#ffffff;rounded=0;shadow=0;comic=0;labelBackgroundColor=none;strokeWidth=1;fontFamily=Verdana;fontSize=18;align=center;strokeColor=#FFFFFF;fontColor=#ffffff;" vertex="1" parent="1">
                    <mxGeometry x="-2560" y="40" width="600" height="820" as="geometry"/>
                </mxCell>
                <mxCell id="121" value="&lt;span style=&quot;background-color: rgb(0, 0, 0);&quot;&gt;&lt;div style=&quot;&quot;&gt;&lt;div&gt;- NumBill : static long long&lt;/div&gt;&lt;div&gt;- ID : String&lt;/div&gt;&lt;div&gt;- Total : int&lt;/div&gt;&lt;div&gt;- BuyDate : Date&lt;/div&gt;&lt;div&gt;- BuyTime : Time&lt;/div&gt;&lt;div&gt;- NumDetailBill : int&lt;/div&gt;&lt;div&gt;- isDeleted : bool&lt;/div&gt;&lt;div&gt;- List : DList&amp;lt;DetailBill *&amp;gt;&lt;/div&gt;&lt;div&gt;- ptrC : Customer *&lt;/div&gt;&lt;div&gt;- void ConnectCustomer(Customer *);&lt;/div&gt;&lt;/div&gt;&lt;/span&gt;" style="text;html=1;strokeColor=default;fillColor=default;align=left;verticalAlign=top;spacingLeft=4;spacingRight=4;whiteSpace=wrap;overflow=hidden;rotatable=0;points=[[0,0.5],[1,0.5]];portConstraint=eastwest;fontSize=18;" vertex="1" parent="120">
                    <mxGeometry y="40" width="600" height="280" as="geometry"/>
                </mxCell>
                <mxCell id="122" value="&lt;div&gt;+ Bill(const Date&amp;amp;, const Time&amp;amp;);&lt;/div&gt;&lt;div&gt;+ ~Bill();&lt;/div&gt;&lt;div&gt;+ void AddDetailBill(DetailBill*);&lt;/div&gt;&lt;div&gt;+ String GetID() const;&lt;/div&gt;&lt;div&gt;+ int GetTotal() const;&lt;/div&gt;&lt;div&gt;+ Date GetBuyDate() const;&lt;/div&gt;&lt;div&gt;+ Time GetBuyTime() const;&lt;/div&gt;&lt;div&gt;+ Phone GetCustomerPhone() const;&lt;/div&gt;&lt;div&gt;+ bool Deleted() const;&lt;/div&gt;&lt;div&gt;+ void SetNumDetailBill(const int&amp;amp;);&lt;/div&gt;&lt;div&gt;+ void SetTotal(const int&amp;amp;);&lt;/div&gt;&lt;div&gt;+ void Delete();&lt;/div&gt;&lt;div&gt;+ void Cancel();&lt;/div&gt;&lt;div&gt;+ void Confirm();&lt;/div&gt;&lt;div&gt;+ friend class Customer;&lt;/div&gt;&lt;div&gt;&lt;div&gt;+ friend int CalRevenue(const DList&amp;lt;Bill*&amp;gt;&amp;amp;, const Date&amp;amp;, const Date&amp;amp;, DList&amp;lt;Bill*&amp;gt; &amp;amp;);&lt;/div&gt;&lt;div&gt;+ friend void OutputTable(const DList&amp;lt;Bill*&amp;gt;&amp;amp;, std::ostream&amp;amp;);&lt;/div&gt;&lt;div&gt;+ friend void OutputDetail(const Bill *, std::ostream&amp;amp;);&lt;/div&gt;&lt;div&gt;+ friend void InsertBill(DList&amp;lt;Bill*&amp;gt;&amp;amp;, Bill *);&lt;/div&gt;&lt;div&gt;+ friend void OutputBillFile(const String &amp;amp;fname, const Bill*);&lt;/div&gt;&lt;/div&gt;" style="text;html=1;strokeColor=default;fillColor=default;align=left;verticalAlign=top;spacingLeft=4;spacingRight=4;whiteSpace=wrap;overflow=hidden;rotatable=0;points=[[0,0.5],[1,0.5]];portConstraint=eastwest;fontSize=18;gradientColor=none;" vertex="1" parent="120">
                    <mxGeometry y="320" width="600" height="500" as="geometry"/>
                </mxCell>
                <mxCell id="123" value="&lt;b style=&quot;color: rgb(240, 240, 240); font-family: Helvetica; font-size: 24px;&quot;&gt;DetailBill&lt;/b&gt;" style="swimlane;html=1;fontStyle=0;childLayout=stackLayout;horizontal=1;startSize=40;fillColor=#0050ef;horizontalStack=0;resizeParent=1;resizeLast=0;collapsible=1;marginBottom=0;swimlaneFillColor=#ffffff;rounded=0;shadow=0;comic=0;labelBackgroundColor=none;strokeWidth=1;fontFamily=Verdana;fontSize=18;align=center;strokeColor=#FFFFFF;fontColor=#ffffff;" vertex="1" parent="1">
                    <mxGeometry x="-3470" y="40" width="370" height="470" as="geometry"/>
                </mxCell>
                <mxCell id="124" value="&lt;span style=&quot;background-color: rgb(0, 0, 0);&quot;&gt;&lt;div style=&quot;&quot;&gt;&lt;div&gt;- SL : int&lt;/div&gt;&lt;div&gt;- ptrDP : DetailProduct *&lt;/div&gt;&lt;div&gt;- ptrB : Bill *&lt;/div&gt;&lt;div&gt;- void ConnectBill(Bill*);&lt;/div&gt;&lt;/div&gt;&lt;/span&gt;" style="text;html=1;strokeColor=default;fillColor=default;align=left;verticalAlign=top;spacingLeft=4;spacingRight=4;whiteSpace=wrap;overflow=hidden;rotatable=0;points=[[0,0.5],[1,0.5]];portConstraint=eastwest;fontSize=18;" vertex="1" parent="123">
                    <mxGeometry y="40" width="370" height="200" as="geometry"/>
                </mxCell>
                <mxCell id="125" value="&lt;div&gt;DetailBill(DetailProduct *, const int &amp;amp;);&lt;/div&gt;&lt;div&gt;int GetSL() const;&lt;/div&gt;&lt;div&gt;String GetNameProduct() const;&lt;/div&gt;&lt;div&gt;String GetIDDetailProduct() const;&lt;/div&gt;&lt;div&gt;int GetPrice() const;&lt;/div&gt;&lt;div&gt;int Pay() const;&lt;/div&gt;&lt;div&gt;friend class Bill;&lt;/div&gt;" style="text;html=1;strokeColor=default;fillColor=default;align=left;verticalAlign=top;spacingLeft=4;spacingRight=4;whiteSpace=wrap;overflow=hidden;rotatable=0;points=[[0,0.5],[1,0.5]];portConstraint=eastwest;fontSize=18;gradientColor=none;" vertex="1" parent="123">
                    <mxGeometry y="240" width="370" height="230" as="geometry"/>
                </mxCell>
                <mxCell id="126" value="&lt;p style=&quot;text-align: center; margin: 4px 0px 0px; font-size: 18px;&quot;&gt;&lt;br style=&quot;font-size: 18px;&quot;&gt;&lt;/p&gt;&lt;p style=&quot;text-align: center; margin: 4px 0px 0px; font-size: 18px;&quot;&gt;&lt;b style=&quot;font-size: 18px;&quot;&gt;DList&amp;lt;Bill&amp;gt;&lt;/b&gt;&lt;/p&gt;&lt;p style=&quot;margin: 4px 0px 0px; text-align: center; font-size: 18px;&quot;&gt;&lt;b style=&quot;font-size: 18px;&quot;&gt;&lt;br style=&quot;font-size: 18px;&quot;&gt;&lt;/b&gt;&lt;/p&gt;&lt;hr style=&quot;font-size: 18px;&quot;&gt;&lt;p style=&quot;margin: 0px 0px 0px 4px; font-size: 18px;&quot;&gt;&lt;br style=&quot;font-size: 18px;&quot;&gt;&lt;/p&gt;&lt;hr style=&quot;font-size: 18px;&quot;&gt;&lt;p style=&quot;margin: 0px 0px 0px 4px; font-size: 18px;&quot;&gt;&lt;br style=&quot;font-size: 18px;&quot;&gt;&lt;/p&gt;" style="verticalAlign=top;align=left;overflow=fill;fontSize=18;fontFamily=Helvetica;html=1;strokeColor=#000000;fontColor=default;fillColor=default;" vertex="1" parent="1">
                    <mxGeometry x="-1040" y="1560" width="240" height="90" as="geometry"/>
                </mxCell>
                <mxCell id="127" value="&lt;p style=&quot;text-align: center; margin: 4px 0px 0px; font-size: 18px;&quot;&gt;&lt;br style=&quot;font-size: 18px;&quot;&gt;&lt;/p&gt;&lt;p style=&quot;text-align: center; margin: 4px 0px 0px; font-size: 18px;&quot;&gt;&lt;b style=&quot;font-size: 18px;&quot;&gt;DList&amp;lt;Product&amp;gt;&lt;/b&gt;&lt;/p&gt;&lt;p style=&quot;margin: 4px 0px 0px; text-align: center; font-size: 18px;&quot;&gt;&lt;b style=&quot;font-size: 18px;&quot;&gt;&lt;br style=&quot;font-size: 18px;&quot;&gt;&lt;/b&gt;&lt;/p&gt;&lt;hr style=&quot;font-size: 18px;&quot;&gt;&lt;p style=&quot;margin: 0px 0px 0px 4px; font-size: 18px;&quot;&gt;&lt;br style=&quot;font-size: 18px;&quot;&gt;&lt;/p&gt;&lt;hr style=&quot;font-size: 18px;&quot;&gt;&lt;p style=&quot;margin: 0px 0px 0px 4px; font-size: 18px;&quot;&gt;&lt;br style=&quot;font-size: 18px;&quot;&gt;&lt;/p&gt;" style="verticalAlign=top;align=left;overflow=fill;fontSize=18;fontFamily=Helvetica;html=1;strokeColor=#000000;fontColor=default;fillColor=default;" vertex="1" parent="1">
                    <mxGeometry x="-1040" y="1740" width="240" height="90" as="geometry"/>
                </mxCell>
                <mxCell id="128" value="&lt;p style=&quot;text-align: center; margin: 4px 0px 0px; font-size: 18px;&quot;&gt;&lt;br style=&quot;font-size: 18px;&quot;&gt;&lt;/p&gt;&lt;p style=&quot;text-align: center; margin: 4px 0px 0px; font-size: 18px;&quot;&gt;&lt;b style=&quot;font-size: 18px;&quot;&gt;DList&amp;lt;Customer&amp;gt;&lt;/b&gt;&lt;/p&gt;&lt;p style=&quot;margin: 4px 0px 0px; text-align: center; font-size: 18px;&quot;&gt;&lt;b style=&quot;font-size: 18px;&quot;&gt;&lt;br style=&quot;font-size: 18px;&quot;&gt;&lt;/b&gt;&lt;/p&gt;&lt;hr style=&quot;font-size: 18px;&quot;&gt;&lt;p style=&quot;margin: 0px 0px 0px 4px; font-size: 18px;&quot;&gt;&lt;br style=&quot;font-size: 18px;&quot;&gt;&lt;/p&gt;&lt;hr style=&quot;font-size: 18px;&quot;&gt;&lt;p style=&quot;margin: 0px 0px 0px 4px; font-size: 18px;&quot;&gt;&lt;br style=&quot;font-size: 18px;&quot;&gt;&lt;/p&gt;" style="verticalAlign=top;align=left;overflow=fill;fontSize=18;fontFamily=Helvetica;html=1;strokeColor=#000000;fontColor=default;fillColor=default;" vertex="1" parent="1">
                    <mxGeometry x="-1040" y="1860" width="240" height="90" as="geometry"/>
                </mxCell>
            </root>
        </mxGraphModel>
    </diagram>
</mxfile>